<svg width="742" height="685" viewBox="0 0 742 685" fill="none" xmlns="http://www.w3.org/2000/svg">
<path d="M1.5 108.921L91.0606 608.555M1.5 108.921L728.492 573.581M1.5 108.921L282.19 1.5M1.5 108.921L615.916 50.9637M1.5 108.921L416.781 683.5M1.5 108.921L368.748 182.867M91.0606 608.555L728.492 573.581M91.0606 608.555L416.781 683.5M91.0606 608.555L282.19 1.5M91.0606 608.555L615.916 50.9637M91.0606 608.555L494.834 410.2M728.492 573.581L416.781 683.5M728.492 573.581L740.5 255.814M282.19 1.5L416.781 683.5M282.19 1.5L494.834 410.2M282.19 1.5L615.916 50.9637M416.781 683.5L494.834 410.2M416.781 683.5L740.5 255.814M494.834 410.2L740.5 255.814M494.834 410.2L615.916 50.9637M615.916 50.9637L368.748 182.867M615.916 50.9637L740.5 255.814M368.748 182.867L740.5 255.814" stroke="#7ECEF4" stroke-opacity="0.5"/>
</svg>
