<svg width="368" height="64" viewBox="0 0 368 64" fill="none" xmlns="http://www.w3.org/2000/svg">
<path d="M9.848 24.248H31.416V32.312H9.848V24.248ZM10.616 42.68H35V51H0.312V6.2H34.168V14.52H10.616V42.68ZM37.8185 51L53.2425 30.776L53.0505 36.28L38.2665 16.568H49.4665L58.8105 29.432L54.5865 29.56L64.2505 16.568H74.8745L60.0265 36.088V30.712L75.3865 51H64.0585L54.2665 37.304L58.4265 37.88L48.6985 51H37.8185ZM100.585 51.512C97.6837 51.512 95.145 50.872 92.969 49.592C90.793 48.312 89.0863 46.3707 87.849 43.768C86.6543 41.1227 86.057 37.7947 86.057 33.784C86.057 29.7307 86.633 26.4027 87.785 23.8C88.937 21.1973 90.601 19.256 92.777 17.976C94.953 16.696 97.5557 16.056 100.585 16.056C103.828 16.056 106.729 16.8027 109.289 18.296C111.892 19.7467 113.94 21.7947 115.433 24.44C116.969 27.0853 117.737 30.2 117.737 33.784C117.737 37.4107 116.969 40.5467 115.433 43.192C113.94 45.8373 111.892 47.8853 109.289 49.336C106.729 50.7867 103.828 51.512 100.585 51.512ZM80.233 63.416V16.568H89.769V23.608L89.577 33.848L90.217 44.024V63.416H80.233ZM98.857 43.32C100.521 43.32 101.993 42.936 103.273 42.168C104.596 41.4 105.641 40.312 106.409 38.904C107.22 37.4533 107.625 35.7467 107.625 33.784C107.625 31.7787 107.22 30.072 106.409 28.664C105.641 27.256 104.596 26.168 103.273 25.4C101.993 24.632 100.521 24.248 98.857 24.248C97.193 24.248 95.6997 24.632 94.377 25.4C93.0543 26.168 92.009 27.256 91.241 28.664C90.473 30.072 90.089 31.7787 90.089 33.784C90.089 35.7467 90.473 37.4533 91.241 38.904C92.009 40.312 93.0543 41.4 94.377 42.168C95.6997 42.936 97.193 43.32 98.857 43.32ZM141.509 51.512C137.583 51.512 134.127 50.744 131.141 49.208C128.197 47.672 125.914 45.5813 124.293 42.936C122.671 40.248 121.861 37.1973 121.861 33.784C121.861 30.328 122.65 27.2773 124.229 24.632C125.85 21.944 128.047 19.8533 130.821 18.36C133.594 16.824 136.73 16.056 140.229 16.056C143.599 16.056 146.629 16.7813 149.317 18.232C152.047 19.64 154.202 21.688 155.781 24.376C157.359 27.0213 158.149 30.2 158.149 33.912C158.149 34.296 158.127 34.744 158.085 35.256C158.042 35.7253 157.999 36.1733 157.957 36.6H129.989V30.776H152.708L148.869 32.504C148.869 30.712 148.506 29.1547 147.781 27.832C147.055 26.5093 146.053 25.4853 144.773 24.76C143.493 23.992 141.999 23.608 140.293 23.608C138.586 23.608 137.071 23.992 135.749 24.76C134.469 25.4853 133.466 26.5307 132.741 27.896C132.015 29.2187 131.653 30.7973 131.653 32.632V34.168C131.653 36.0453 132.058 37.7093 132.869 39.16C133.722 40.568 134.895 41.656 136.389 42.424C137.925 43.1493 139.717 43.512 141.765 43.512C143.599 43.512 145.199 43.2347 146.565 42.68C147.973 42.1253 149.253 41.2933 150.405 40.184L155.717 45.944C154.138 47.736 152.154 49.1227 149.765 50.104C147.375 51.0427 144.623 51.512 141.509 51.512ZM164.796 51V16.568H174.332V26.296L172.988 23.48C174.012 21.048 175.654 19.2133 177.916 17.976C180.177 16.696 182.929 16.056 186.172 16.056V25.272C185.745 25.2293 185.361 25.208 185.02 25.208C184.678 25.1653 184.316 25.144 183.932 25.144C181.201 25.144 178.982 25.9333 177.276 27.512C175.612 29.048 174.78 31.4587 174.78 34.744V51H164.796ZM192.171 51V16.568H202.155V51H192.171ZM197.163 11.768C195.328 11.768 193.835 11.2347 192.683 10.168C191.531 9.10133 190.955 7.77866 190.955 6.2C190.955 4.62133 191.531 3.29866 192.683 2.232C193.835 1.16533 195.328 0.631996 197.163 0.631996C198.997 0.631996 200.491 1.144 201.643 2.168C202.795 3.14933 203.371 4.42933 203.371 6.008C203.371 7.672 202.795 9.05866 201.643 10.168C200.533 11.2347 199.04 11.768 197.163 11.768ZM228.509 51.512C224.583 51.512 221.127 50.744 218.141 49.208C215.197 47.672 212.914 45.5813 211.293 42.936C209.671 40.248 208.861 37.1973 208.861 33.784C208.861 30.328 209.65 27.2773 211.229 24.632C212.85 21.944 215.047 19.8533 217.821 18.36C220.594 16.824 223.73 16.056 227.229 16.056C230.599 16.056 233.629 16.7813 236.317 18.232C239.047 19.64 241.202 21.688 242.781 24.376C244.359 27.0213 245.149 30.2 245.149 33.912C245.149 34.296 245.127 34.744 245.085 35.256C245.042 35.7253 244.999 36.1733 244.957 36.6H216.989V30.776H239.708L235.869 32.504C235.869 30.712 235.506 29.1547 234.781 27.832C234.055 26.5093 233.053 25.4853 231.773 24.76C230.493 23.992 228.999 23.608 227.293 23.608C225.586 23.608 224.071 23.992 222.749 24.76C221.469 25.4853 220.466 26.5307 219.741 27.896C219.015 29.2187 218.653 30.7973 218.653 32.632V34.168C218.653 36.0453 219.058 37.7093 219.869 39.16C220.722 40.568 221.895 41.656 223.389 42.424C224.925 43.1493 226.717 43.512 228.765 43.512C230.599 43.512 232.199 43.2347 233.565 42.68C234.973 42.1253 236.253 41.2933 237.405 40.184L242.717 45.944C241.138 47.736 239.154 49.1227 236.765 50.104C234.375 51.0427 231.623 51.512 228.509 51.512ZM272.724 16.056C275.454 16.056 277.886 16.6107 280.02 17.72C282.196 18.7867 283.902 20.4507 285.14 22.712C286.377 24.9307 286.996 27.7893 286.996 31.288V51H277.012V32.824C277.012 30.0507 276.393 28.0027 275.156 26.68C273.961 25.3573 272.254 24.696 270.036 24.696C268.457 24.696 267.028 25.0373 265.748 25.72C264.51 26.36 263.529 27.3627 262.804 28.728C262.121 30.0933 261.78 31.8427 261.78 33.976V51H251.796V16.568H261.332V26.104L259.54 23.224C260.777 20.92 262.548 19.1493 264.852 17.912C267.156 16.6747 269.78 16.056 272.724 16.056ZM312.936 51.512C309.224 51.512 305.917 50.7653 303.016 49.272C300.114 47.736 297.832 45.624 296.168 42.936C294.546 40.248 293.736 37.1973 293.736 33.784C293.736 30.328 294.546 27.2773 296.168 24.632C297.832 21.944 300.114 19.8533 303.016 18.36C305.917 16.824 309.224 16.056 312.936 16.056C316.562 16.056 319.72 16.824 322.408 18.36C325.096 19.8533 327.08 22.008 328.36 24.824L320.616 28.984C319.72 27.3627 318.589 26.168 317.224 25.4C315.901 24.632 314.45 24.248 312.872 24.248C311.165 24.248 309.629 24.632 308.264 25.4C306.898 26.168 305.81 27.256 305 28.664C304.232 30.072 303.848 31.7787 303.848 33.784C303.848 35.7893 304.232 37.496 305 38.904C305.81 40.312 306.898 41.4 308.264 42.168C309.629 42.936 311.165 43.32 312.872 43.32C314.45 43.32 315.901 42.9573 317.224 42.232C318.589 41.464 319.72 40.248 320.616 38.584L328.36 42.808C327.08 45.5813 325.096 47.736 322.408 49.272C319.72 50.7653 316.562 51.512 312.936 51.512ZM350.759 51.512C346.833 51.512 343.377 50.744 340.391 49.208C337.447 47.672 335.164 45.5813 333.543 42.936C331.921 40.248 331.111 37.1973 331.111 33.784C331.111 30.328 331.9 27.2773 333.479 24.632C335.1 21.944 337.297 19.8533 340.071 18.36C342.844 16.824 345.98 16.056 349.479 16.056C352.849 16.056 355.879 16.7813 358.567 18.232C361.297 19.64 363.452 21.688 365.031 24.376C366.609 27.0213 367.399 30.2 367.399 33.912C367.399 34.296 367.377 34.744 367.335 35.256C367.292 35.7253 367.249 36.1733 367.207 36.6H339.239V30.776H361.958L358.119 32.504C358.119 30.712 357.756 29.1547 357.031 27.832C356.305 26.5093 355.303 25.4853 354.023 24.76C352.743 23.992 351.249 23.608 349.543 23.608C347.836 23.608 346.321 23.992 344.999 24.76C343.719 25.4853 342.716 26.5307 341.991 27.896C341.265 29.2187 340.903 30.7973 340.903 32.632V34.168C340.903 36.0453 341.308 37.7093 342.119 39.16C342.972 40.568 344.145 41.656 345.639 42.424C347.175 43.1493 348.967 43.512 351.015 43.512C352.849 43.512 354.449 43.2347 355.815 42.68C357.223 42.1253 358.503 41.2933 359.655 40.184L364.967 45.944C363.388 47.736 361.404 49.1227 359.015 50.104C356.625 51.0427 353.873 51.512 350.759 51.512Z" fill="white"/>
</svg>
