<svg width="378" height="144" viewBox="0 0 378 144" fill="none" xmlns="http://www.w3.org/2000/svg">
<path d="M59.8171 51.0332C45.6299 45.1782 34.0793 54.5213 30.9405 58.5076C27.8017 62.494 3.31936 108.96 2.5661 113.445L2.56291 113.464C1.80721 117.963 -0.177119 129.776 13.2378 138.609C26.6718 147.453 41.3613 135.121 43.8723 130.636C46.3833 126.151 70.8656 80.0589 71.3679 77.5675C71.8701 75.076 74.0044 56.8882 59.8171 51.0332Z" stroke="white" stroke-width="3"/>
<path d="M139.291 12.2907C123.848 4.81621 111.544 17.7719 111.544 17.7719C111.544 17.7719 64.086 108.836 63.0815 113.445C62.077 118.054 59.8171 132.006 76.7665 138.609C93.7158 145.211 104.011 132.006 104.011 132.006L151.595 36.9563C151.595 36.9563 154.734 19.7651 139.291 12.2907Z" stroke="white" stroke-width="3"/>
<path d="M156.993 47.296C155.361 47.9188 133.013 91.146 133.264 92.7655C133.515 94.3849 146.949 122.663 154.357 133.003C161.764 143.343 179.467 144.962 188.255 136.865C197.044 128.767 195.788 117.805 195.035 113.445C194.282 109.085 158.626 46.6731 156.993 47.296Z" stroke="white" stroke-width="3"/>
<path d="M202.321 121.709V70.2597C202.321 70.2597 205.586 51.6981 225.172 51.6981C244.757 51.6981 247.143 70.2597 247.143 70.2597L248.649 121.709C248.649 121.709 243.627 141.89 225.172 141.267C206.716 140.644 202.321 121.709 202.321 121.709Z" stroke="white" stroke-width="3"/>
<path d="M244.514 22.5479C244.514 34.1613 235.022 43.5958 223.289 43.5958C211.556 43.5958 202.064 34.1613 202.064 22.5479C202.064 10.9345 211.556 1.5 223.289 1.5C235.022 1.5 244.514 10.9345 244.514 22.5479Z" stroke="white" stroke-width="3"/>
<path d="M309.919 45.7188C328.626 36.9986 338.419 47.5874 344.571 52.1966C350.723 56.8059 362.901 59.5465 371.313 49.8297C379.725 40.1129 373.196 29.8979 373.196 29.8979C373.196 29.8979 365.287 17.4405 345.952 10.0906C326.617 2.74072 303.39 8.72027 303.39 8.72027C303.39 8.72027 276.648 13.4541 261.331 45.7188C246.014 77.9835 265.851 108.38 265.851 108.38C265.851 108.38 281.545 136.409 315.318 139.149C349.091 141.89 371.313 119.217 371.313 119.217C371.313 119.217 381.859 105.39 371.313 93.3061C360.767 81.2224 345.952 91.9357 345.952 91.9357C345.952 91.9357 338.796 104.269 318.456 102.774C298.117 101.279 292.342 76.4886 292.342 76.4886C292.342 76.4886 291.212 54.4389 309.919 45.7188Z" stroke="white" stroke-width="3"/>
</svg>
